<?xml version="1.0" encoding="utf-8"?>
<!-- Generator: Adobe Illustrator 16.0.0, SVG Export Plug-In . SVG Version: 6.00 Build 0)  -->
<!DOCTYPE svg PUBLIC "-//W3C//DTD SVG 1.1//EN" "http://www.w3.org/Graphics/SVG/1.1/DTD/svg11.dtd">
<svg version="1.1" id="Layer_1" xmlns="http://www.w3.org/2000/svg" xmlns:xlink="http://www.w3.org/1999/xlink" x="0px" y="0px"
	 width="512px" height="512px" viewBox="0 0 512 512" enable-background="new 0 0 512 512" xml:space="preserve">
<g>
	<path d="M168,288c61.938,0,112-50.141,112-112S229.938,64,168,64c-61.875,0-112,50.141-112,112S106.125,288,168,288z M140,120
		c16.125,16.156,28,56,112,56c0,46.328-37.688,84-84,84s-84-37.672-84-84C84,176,116.594,156.281,140,120z"/>
	<polygon points="168,316 140,344 168,456 196,344 	"/>
	<path d="M280,316h-72.438L227,335.406L182.875,512H280h28c15.469,0,28-12.531,28-28V372C336,341.063,310.969,316,280,316z"/>
	<path d="M128.406,316H56c-30.875,0-56,25.063-56,56v112c0,15.469,12.5,28,28,28h28h97.156L109,335.406L128.406,316z"/>
	<path d="M292.875,105.688C316.438,97.063,344,76.641,344,28c0,0,0,84.875,84,84c0,46.391-37.625,84-84,84
		c-11.625,0-22.688-2.359-32.75-6.641c-1.156,12.063-3.781,23.672-7.75,34.641H428c15.469,0,28-12.531,28-28v-84
		C456,50.156,405.844,0,344,0c-41.375,0-77.125,22.719-96.5,56.094C266.375,68.672,281.688,85.859,292.875,105.688z"/>
	<path d="M456,252h-70l28,28l-51.625,61.938C365.813,351.375,368,361.406,368,372v76h88h28c15.469,0,28-12.531,28-28V308
		C512,277.063,486.938,252,456,252z"/>
</g>
</svg>
